<svg id="facebook" xmlns="http://www.w3.org/2000/svg" width="50.05" height="45.15" viewBox="0 0 50.05 45.15">
  <defs>
    <style>
      .cls-1 {
        fill: salmon;
      }
    </style>
  </defs>
  <path id="Path_2" data-name="Path 2" class="cls-1" d="M297.277,508.668q-3.2.521-6.422.961Q294.078,509.189,297.277,508.668Zm0,0" transform="translate(-265.756 -466.85)"/>
  <path id="Path_3" data-name="Path 3" class="cls-1" d="M302.4,507.793c-1.02.188-2.039.359-3.059.535C300.359,508.152,301.378,507.98,302.4,507.793Zm0,0" transform="translate(-271.701 -466.85)"/>
  <path id="Path_4" data-name="Path 4" class="cls-1" d="M285.137,510.34q-3.744.422-7.527.742Q281.389,510.766,285.137,510.34Zm0,0" transform="translate(-254.21 -466.85)"/>
  <path id="Path_5" data-name="Path 5" class="cls-1" d="M290.055,509.738c-1.2.16-2.406.309-3.609.449C287.649,510.047,288.856,509.9,290.055,509.738Zm0,0" transform="translate(-260.279 -466.85)"/>
  <path id="Path_6" data-name="Path 6" class="cls-1" d="M309.367,506.41c-.9.191-1.8.383-2.7.566C307.566,506.793,308.469,506.6,309.367,506.41Zm0,0" transform="translate(-278.155 -466.85)"/>
  <path id="Path_7" data-name="Path 7" class="cls-1" d="M326.664,502.113c-.727.207-1.453.4-2.18.605C325.211,502.515,325.937,502.32,326.664,502.113Zm0,0" transform="translate(-294.016 -466.85)"/>
  <path id="Path_8" data-name="Path 8" class="cls-1" d="M321.434,503.543c-.789.207-1.582.418-2.375.617Q320.248,503.861,321.434,503.543Zm0,0" transform="translate(-289.211 -466.85)"/>
  <path id="Path_9" data-name="Path 9" class="cls-1" d="M314.59,505.254c-.836.2-1.68.379-2.523.566C312.91,505.633,313.754,505.449,314.59,505.254Zm0,0" transform="translate(-282.955 -466.85)"/>
  <path id="Path_10" data-name="Path 10" class="cls-1" d="M277.527,511.09q-2.021.17-4.047.3Q275.507,511.26,277.527,511.09Zm0,0" transform="translate(-248.712 -466.85)"/>
  <path id="Path_11" data-name="Path 11" class="cls-1" d="M50.05,22.575C50.05,10.109,38.844,0,25.025,0S0,10.109,0,22.575,11.206,45.15,25.025,45.15c.147,0,.293,0,.44-.005V27.571H20.088V21.919h5.376V17.759c0-4.824,3.264-7.449,8.035-7.449,2.284,0,4.248.154,4.82.222v5.042H35.03c-2.6,0-3.1,1.113-3.1,2.745v3.6h6.205l-.809,5.652h-5.4V44.278c10.46-2.705,18.117-11.4,18.117-21.7Zm0,0"/>
  <path id="Path_12" data-name="Path 12" class="cls-1" d="M272.914,511.43q-4,.258-8.023.4Q268.916,511.694,272.914,511.43Zm0,0" transform="translate(-242.801 -466.85)"/>
  <path id="Path_13" data-name="Path 13" class="cls-1" d="M264.754,511.836q-2.121.07-4.25.105Q262.631,511.906,264.754,511.836Zm0,0" transform="translate(-237.006 -466.85)"/>
</svg>
