<svg xmlns="http://www.w3.org/2000/svg" width="50.05" height="45.15" viewBox="0 0 50.05 45.15">
  <defs>
    <style>
      .cls-1 {
        fill: salmon;
      }
    </style>
  </defs>
  <path id="linkedin" class="cls-1" d="M25.025,0C11.206,0,0,10.109,0,22.575S11.206,45.15,25.025,45.15,50.05,35.041,50.05,22.575,38.844,0,25.025,0ZM17.753,34.127H11.658V17.586h6.095Zm-3.047-18.8h-.04c-2.045,0-3.368-1.27-3.368-2.857,0-1.623,1.363-2.858,3.448-2.858s3.368,1.235,3.408,2.858c0,1.587-1.323,2.857-3.448,2.857Zm25.023,18.8H33.635V25.278c0-2.224-.882-3.741-3.088-3.741a3.32,3.32,0,0,0-3.127,2.011,3.425,3.425,0,0,0-.2,1.342v9.237H21.126s.08-14.989,0-16.541H27.22v2.342a6.179,6.179,0,0,1,5.493-2.73c4.01,0,7.017,2.364,7.017,7.445Zm0,0"/>
</svg>
