<svg id="twitter-social-logotype" xmlns="http://www.w3.org/2000/svg" width="50.05" height="45.15" viewBox="0 0 50.05 45.15">
  <defs>
    <style>
      .cls-1 {
        fill: salmon;
      }
    </style>
  </defs>
  <path id="Path_1" data-name="Path 1" class="cls-1" d="M25.025,0C11.2,0,0,10.107,0,22.575S11.2,45.15,25.025,45.15,50.05,35.043,50.05,22.575,38.846,0,25.025,0ZM40.158,16.555q.018.4.018.8c0,9.643-8.134,19.618-21.747,19.618a23.405,23.405,0,0,1-11.717-3.1.158.158,0,0,1-.074-.2.189.189,0,0,1,.2-.109,16.752,16.752,0,0,0,1.785.095,16.036,16.036,0,0,0,8.895-2.616,7.648,7.648,0,0,1-6.739-4.84.156.156,0,0,1,.037-.162.2.2,0,0,1,.174-.053,8.246,8.246,0,0,0,2.581.033,7.149,7.149,0,0,1-5.457-6.69v-.09a.166.166,0,0,1,.093-.141.2.2,0,0,1,.182,0,8,8,0,0,0,2.709.79,6.763,6.763,0,0,1-2.923-5.479,6.48,6.48,0,0,1,1.052-3.521.187.187,0,0,1,.145-.082.191.191,0,0,1,.158.061,22.243,22.243,0,0,0,15.243,7.069,6.417,6.417,0,0,1-.149-1.379c0-3.862,3.483-7,7.763-7a8.236,8.236,0,0,1,5.6,2.144,15.977,15.977,0,0,0,4.654-1.62.2.2,0,0,1,.21.013.159.159,0,0,1,.06.182,7.058,7.058,0,0,1-2.729,3.459,16.147,16.147,0,0,0,3.5-.957.2.2,0,0,1,.217.045.154.154,0,0,1,.012.2A14.714,14.714,0,0,1,40.158,16.555Z"/>
</svg>
